<svg aria-hidden="true" style="position: absolute; width: 0; height: 0; overflow: hidden;" version="1.1" xmlns="http://www.w3.org/2000/svg" xmlns:xlink="http://www.w3.org/1999/xlink">
<defs>
<symbol id="icon-youtube" viewBox="0 0 46 32">
<path d="M44.777 12.24c0-0.883-0.077-2.034-0.23-3.415-0.115-1.381-0.307-2.609-0.537-3.683-0.269-1.228-0.844-2.225-1.727-3.070s-1.919-1.305-3.108-1.458c-3.683-0.422-9.285-0.614-16.767-0.614s-13.084 0.192-16.767 0.614c-1.189 0.153-2.225 0.614-3.108 1.458s-1.458 1.842-1.727 3.070c-0.269 1.074-0.422 2.302-0.576 3.683-0.115 1.381-0.192 2.532-0.23 3.415 0 0.921 0 2.149 0 3.76s0 2.839 0.038 3.76c0 0.883 0.077 2.034 0.23 3.415 0.077 1.381 0.269 2.609 0.499 3.684 0.269 1.228 0.844 2.225 1.727 3.069s1.918 1.305 3.108 1.458c3.683 0.422 9.285 0.614 16.767 0.614s13.084-0.192 16.767-0.614c1.189-0.115 2.225-0.614 3.108-1.458s1.458-1.842 1.727-3.069c0.269-1.074 0.422-2.302 0.576-3.684 0.115-1.381 0.192-2.532 0.23-3.415 0-0.882 0.038-2.149 0.038-3.76s0-2.839-0.038-3.76zM31.271 17.343l-12.815 8.019c-0.23 0.153-0.499 0.269-0.844 0.269-0.269 0-0.499-0.077-0.767-0.192-0.537-0.307-0.844-0.767-0.844-1.42v-16c0-0.652 0.269-1.113 0.844-1.42s1.113-0.269 1.612 0.038l12.815 8.019c0.499 0.269 0.767 0.729 0.767 1.343-0.038 0.614-0.269 1.074-0.767 1.343z"></path>
</symbol>
<symbol id="icon-in" viewBox="0 0 33 32">
<path d="M7.587 10.399h-7.186v21.601h7.186v-21.601z"></path>
<path d="M31.182 12.372c-1.504-1.638-3.509-2.474-5.982-2.474-0.902 0-1.738 0.1-2.507 0.334-0.735 0.234-1.37 0.535-1.905 0.936-0.501 0.401-0.936 0.769-1.236 1.137-0.301 0.334-0.568 0.702-0.836 1.137v-3.076h-7.152l0.033 1.037c0 0.702 0.033 2.842 0.033 6.453s0 8.293-0.033 14.111h7.152v-12.038c0-0.736 0.067-1.337 0.234-1.772 0.301-0.736 0.769-1.371 1.37-1.873s1.37-0.736 2.306-0.736c1.237 0 2.172 0.435 2.741 1.304 0.602 0.869 0.869 2.073 0.869 3.578v11.536h7.152v-12.372c0.033-3.177-0.702-5.584-2.239-7.223z"></path>
<path d="M4.044 0c-1.203 0-2.172 0.368-2.908 1.070-0.769 0.702-1.136 1.572-1.136 2.642s0.368 1.939 1.103 2.675c0.735 0.702 1.671 1.070 2.874 1.070h0.033c1.237 0 2.206-0.368 2.941-1.070s1.103-1.605 1.103-2.675c0-1.070-0.401-1.973-1.103-2.675-0.735-0.669-1.704-1.037-2.908-1.037z"></path>
</symbol>
<symbol id="icon-twiter" viewBox="0 0 40 32">
<path d="M39.998 3.799c-1.558 0.652-3.155 1.074-4.713 1.266 1.792-1.036 2.96-2.532 3.622-4.451-1.636 0.921-3.388 1.573-5.219 1.918-1.636-1.688-3.622-2.532-5.998-2.532-2.259 0-4.206 0.806-5.803 2.379s-2.415 3.492-2.415 5.717c0 0.614 0.078 1.228 0.195 1.842-3.35-0.153-6.504-0.998-9.425-2.494s-5.414-3.492-7.478-5.947c-0.74 1.266-1.129 2.609-1.129 4.067 0 1.381 0.312 2.686 0.974 3.837 0.662 1.189 1.558 2.149 2.648 2.878-1.324-0.038-2.571-0.384-3.7-1.036v0.115c0 1.957 0.623 3.645 1.87 5.142 1.246 1.458 2.804 2.417 4.713 2.801-0.701 0.192-1.441 0.269-2.142 0.269-0.467 0-0.974-0.038-1.558-0.115 0.506 1.612 1.48 2.954 2.882 3.99s2.999 1.573 4.791 1.612c-2.96 2.302-6.388 3.453-10.166 3.453-0.74 0-1.402-0.038-1.986-0.115 3.817 2.417 8.023 3.607 12.58 3.607 2.921 0 5.648-0.46 8.218-1.343 2.571-0.921 4.752-2.11 6.543-3.645s3.388-3.3 4.674-5.257c1.324-1.995 2.298-4.067 2.921-6.216s0.974-4.336 0.974-6.484c0-0.46 0-0.806-0.039-1.036 1.675-1.189 3.038-2.571 4.167-4.221z"></path>
</symbol>
<symbol id="icon-facebook" viewBox="0 0 15 32">
<path d="M9.668 10.488v-2.771c0-0.417 0.029-0.745 0.058-0.953 0.029-0.238 0.116-0.447 0.261-0.655s0.348-0.358 0.639-0.447c0.29-0.089 0.697-0.119 1.19-0.119h2.7v-5.542h-4.326c-2.497 0-4.268 0.596-5.342 1.817s-1.626 2.98-1.626 5.363v3.307h-3.223v5.512h3.223v16h6.445v-16h4.297l0.581-5.512h-4.878z"></path>
</symbol>
<symbol id="icon-instagram" viewBox="0 0 32 32">
<path d="M23.172 0h-14.343c-4.876 0-8.828 3.953-8.828 8.828v14.343c0 4.876 3.953 8.828 8.828 8.828h14.343c4.876 0 8.828-3.953 8.828-8.828v-14.343c0-4.876-3.953-8.828-8.828-8.828zM29.16 23.172c0 3.314-2.698 5.988-5.988 5.988h-14.343c-3.314 0-5.988-2.698-5.988-5.988v-14.343c0-3.29 2.698-5.988 5.988-5.988h14.343c3.314 0 5.988 2.698 5.988 5.988v14.343z"></path>
<path d="M16 7.763c-4.544 0-8.26 3.692-8.26 8.237s3.692 8.26 8.26 8.26c4.544 0 8.26-3.692 8.26-8.26 0-4.544-3.716-8.237-8.26-8.237zM16 21.42c-2.982 0-5.42-2.414-5.42-5.396 0.024-3.006 2.438-5.42 5.42-5.42s5.42 2.414 5.42 5.396c0 2.982-2.438 5.42-5.42 5.42z"></path>
<path d="M24.592 5.349c-0.544 0-1.089 0.213-1.468 0.615-0.379 0.379-0.615 0.923-0.615 1.467s0.213 1.089 0.615 1.467c0.379 0.379 0.923 0.615 1.468 0.615s1.089-0.213 1.468-0.615c0.379-0.379 0.615-0.923 0.615-1.467s-0.213-1.089-0.615-1.467c-0.379-0.402-0.899-0.615-1.468-0.615z"></path>
</symbol>
<symbol id="icon-logo" viewBox="0 0 32 32">
<path fill="#1abe84" style="fill: var(--color1, #1abe84)" d="M32 16c0 8.837-7.163 16-16 16s-16-7.163-16-16c0-8.837 7.163-16 16-16s16 7.163 16 16z"></path>
<path fill="#fb8f1d" style="fill: var(--color2, #fb8f1d); stroke: var(--color3, #fff)" stroke="#fff" stroke-linejoin="miter" stroke-linecap="butt" stroke-miterlimit="4" stroke-width="2.1818" d="M22.945 16c0 3.835-3.109 6.945-6.945 6.945s-6.945-3.109-6.945-6.945c0-3.835 3.109-6.945 6.945-6.945s6.945 3.109 6.945 6.945z"></path>
</symbol>
</defs>
</svg>
