<svg aria-hidden="true" style="position: absolute; width: 0; height: 0; overflow: hidden;" version="1.1" xmlns="http://www.w3.org/2000/svg" xmlns:xlink="http://www.w3.org/1999/xlink">
<defs>
<symbol id="icon-element" viewBox="0 0 32 32">
<path fill="#fdd08d" style="fill: var(--color1, #fdd08d)" d="M18.679 29.737l0.315-9.797c0.066-0.372 0.38-0.701 0.775-0.759l9.819 0.322c0.373 0.066 0.688-0.263 0.775-0.759l0.194-5.468c0.066-0.372-0.264-0.686-0.761-0.774l-9.819-0.322c-0.373-0.066-0.703-0.38-0.761-0.774l0.315-9.797c0.066-0.372-0.264-0.686-0.762-0.774l-5.48-0.198c-0.373-0.066-0.688 0.263-0.775 0.759l-0.315 9.797c-0.066 0.372-0.38 0.701-0.775 0.759l-9.819-0.322c-0.373-0.066-0.688 0.263-0.775 0.759l-0.194 5.468c-0.066 0.372 0.264 0.686 0.762 0.774l9.819 0.322c0.373 0.066 0.703 0.38 0.761 0.774l-0.315 9.797c-0.066 0.372 0.264 0.686 0.761 0.774l5.48 0.198c0.395-0.058 0.709-0.387 0.775-0.759z"></path>
</symbol>
<symbol id="icon-element2" viewBox="0 0 32 32">
<path fill="#fdd08d" style="fill: var(--color1, #fdd08d)" d="M17.056 31.229l2.108-9.692c0.134-0.359 0.506-0.628 0.91-0.614l9.713 2.119c0.359 0.134 0.733-0.136 0.91-0.614l1.194-5.406c0.134-0.359-0.137-0.731-0.616-0.91l-9.713-2.119c-0.359-0.134-0.63-0.507-0.616-0.91l2.108-9.692c0.134-0.359-0.137-0.731-0.616-0.91l-5.418-1.2c-0.359-0.134-0.733 0.136-0.91 0.614l-2.108 9.692c-0.133 0.359-0.506 0.628-0.91 0.614l-9.713-2.119c-0.359-0.134-0.732 0.136-0.91 0.614l-1.194 5.406c-0.133 0.358 0.137 0.731 0.616 0.91l9.713 2.119c0.359 0.134 0.63 0.507 0.616 0.91l-2.108 9.692c-0.133 0.359 0.137 0.731 0.616 0.91l5.418 1.2c0.404 0.014 0.777-0.255 0.91-0.613z"></path>
</symbol>
<symbol id="icon-element3" viewBox="0 0 32 32">
<path d="M1.454 22.647c-3.691-7.996-0.1-17.491 7.88-21.19s17.455-0.1 21.146 7.896c3.691 7.996 0.1 17.492-7.88 21.19s-17.455 0.1-21.146-7.896zM5.843 20.648c2.593 5.597 9.176 8.096 14.862 5.497 5.586-2.599 8.079-9.196 5.486-14.893s-9.176-8.096-14.862-5.497c-5.586 2.599-8.079 9.296-5.486 14.893z"></path>
</symbol>
</defs>
</svg>
