<svg aria-hidden="true" style="position: absolute; width: 0; height: 0; overflow: hidden;" version="1.1" xmlns="http://www.w3.org/2000/svg" xmlns:xlink="http://www.w3.org/1999/xlink">
<defs>
<symbol id="circle" viewBox="0 0 32 32">
<path d="M1.454 22.647c-3.691-7.996-0.1-17.491 7.88-21.19s17.455-0.1 21.146 7.896c3.691 7.996 0.1 17.492-7.88 21.19s-17.455 0.1-21.146-7.896zM5.843 20.648c2.593 5.597 9.176 8.096 14.862 5.497 5.586-2.599 8.079-9.196 5.486-14.893s-9.176-8.096-14.862-5.497c-5.586 2.599-8.079 9.296-5.486 14.893z"></path>
</symbol>
<symbol id="cross" viewBox="0 0 32 32">
<path  d="M19.349 29.764l-0.115-9.918c0.050-0.379 0.353-0.725 0.75-0.802l9.941-0.108c0.38 0.050 0.683-0.296 0.75-0.802l-0.046-5.536c0.050-0.379-0.297-0.682-0.804-0.749l-9.941 0.108c-0.38-0.050-0.727-0.353-0.804-0.749l-0.115-9.918c0.050-0.379-0.297-0.682-0.804-0.749l-5.549 0.042c-0.38-0.050-0.684 0.296-0.75 0.802l0.115 9.918c-0.050 0.379-0.353 0.725-0.75 0.802l-9.941 0.108c-0.38-0.050-0.683 0.296-0.75 0.802l0.046 5.536c-0.050 0.379 0.297 0.682 0.804 0.749l9.941-0.108c0.38 0.050 0.727 0.353 0.804 0.749l0.115 9.918c-0.050 0.379 0.297 0.682 0.804 0.749l5.549-0.042c0.397-0.076 0.7-0.423 0.75-0.802z"></path>
</symbol>
<symbol id="slide" viewBox="0 0 17 32">
<path fill="none" stroke="#fb8f1d" style="stroke: var(--color1, #fb8f1d)" stroke-linejoin="round" stroke-linecap="round" stroke-miterlimit="4" stroke-width="5.8182" d="M2.909 2.909l11.636 13.091-11.636 13.091"></path>
</symbol>
</defs>
</svg>
