<svg aria-hidden="true" style="position:absolute;width:0;height:0;overflow:hidden" xmlns="http://www.w3.org/2000/svg">
    <defs>
        <symbol id="icon-element" viewBox="0 0 32 32">
            <path
                d="m19.349 29.764-.115-9.918a.96.96 0 0 1 .75-.802l9.941-.108c.38.05.683-.296.75-.802l-.046-5.536c.05-.379-.297-.682-.804-.749l-9.941.108a.962.962 0 0 1-.804-.749l-.115-9.918c.05-.379-.297-.682-.804-.749l-5.549.042c-.38-.05-.684.296-.75.802l.115 9.918a.96.96 0 0 1-.75.802l-9.941.108c-.38-.05-.683.296-.75.802l.046 5.536c-.05.379.297.682.804.749l9.941-.108c.38.05.727.353.804.749l.115 9.918c-.05.379.297.682.804.749l5.549-.042a.96.96 0 0 0 .75-.802z" />
        </symbol>
        <symbol id="icon-element2" viewBox="0 0 32 32">
            <path
                d="M1.454 22.647c-3.691-7.996-.1-17.491 7.88-21.19s17.455-.1 21.146 7.896c3.691 7.996.1 17.492-7.88 21.19s-17.455.1-21.146-7.896zm4.389-1.999a11.197 11.197 0 0 0 14.862 5.497c5.586-2.599 8.079-9.196 5.486-14.893s-9.176-8.096-14.862-5.497C5.743 8.354 3.25 15.051 5.843 20.648z" />
        </symbol>
        <symbol id="icon-element3" viewBox="0 0 32 32">
            <path
                d="M1.454 22.647c-3.691-7.996-.1-17.491 7.88-21.19s17.455-.1 21.146 7.896c3.691 7.996.1 17.492-7.88 21.19s-17.455.1-21.146-7.896zm4.389-1.999a11.197 11.197 0 0 0 14.862 5.497c5.586-2.599 8.079-9.196 5.486-14.893s-9.176-8.096-14.862-5.497C5.743 8.354 3.25 15.051 5.843 20.648z" />
        </symbol>
    </defs>
</svg>